<?xml version="1.0" encoding="UTF-8" standalone="no"?>
<!-- Created with Inkscape (http://www.inkscape.org/) -->

<svg
   xmlns:dc="http://purl.org/dc/elements/1.1/"
   xmlns:cc="http://creativecommons.org/ns#"
   xmlns:rdf="http://www.w3.org/1999/02/22-rdf-syntax-ns#"
   xmlns:svg="http://www.w3.org/2000/svg"
   xmlns="http://www.w3.org/2000/svg"
   xmlns:xlink="http://www.w3.org/1999/xlink"
   xmlns:sodipodi="http://sodipodi.sourceforge.net/DTD/sodipodi-0.dtd"
   xmlns:inkscape="http://www.inkscape.org/namespaces/inkscape"
   id="svg9553"
   sodipodi:docname="akiross-Audio-Button-Set.svg"
   viewBox="0 0 170.66799 50.309186"
   sodipodi:version="0.32"
   version="1.0"
   inkscape:output_extension="org.inkscape.output.svg.inkscape"
   inkscape:version="0.92.2 2405546, 2018-03-11"
   width="170.66798"
   height="50.309185">
  <defs
     id="defs9555">
    <linearGradient
       id="linearGradient9542"
       y2="25.597"
       xlink:href="#linearGradient5037"
       gradientUnits="userSpaceOnUse"
       x2="632.47998"
       gradientTransform="matrix(0.85369,-0.33367,0.33367,0.85369,-61.772,30.6)"
       y1="53.938999"
       x1="629.33002"
       inkscape:collect="always" />
    <linearGradient
       id="linearGradient9540"
       y2="-3.3468001"
       xlink:href="#linearGradient5037"
       gradientUnits="userSpaceOnUse"
       x2="557.54999"
       y1="-39.056"
       x1="557.54999"
       inkscape:collect="always" />
    <filter
       id="filter6084"
       inkscape:collect="always">
      <feGaussianBlur
         id="feGaussianBlur6086"
         stdDeviation="1.54827"
         inkscape:collect="always" />
    </filter>
    <linearGradient
       id="linearGradient10617"
       y2="-76.400002"
       gradientUnits="userSpaceOnUse"
       x2="531.01001"
       y1="-1.2398"
       x1="531.01001"
       inkscape:collect="always">
      <stop
         id="stop10613"
         style="stop-color:#286a27"
         offset="0" />
      <stop
         id="stop10615"
         style="stop-color:#264826"
         offset="1" />
    </linearGradient>
    <radialGradient
       id="radialGradient9538"
       gradientUnits="userSpaceOnUse"
       cy="-27.632"
       cx="531.03998"
       gradientTransform="matrix(0.87056,0,0,0.87056,68.738,-5.1012)"
       r="37.709"
       inkscape:collect="always">
      <stop
         id="stop5006"
         style="stop-color:#8fe68c"
         offset="0" />
      <stop
         id="stop5008"
         style="stop-color:#29902b"
         offset="1" />
    </radialGradient>
    <linearGradient
       id="linearGradient10601"
       y2="25.597"
       xlink:href="#linearGradient5037"
       gradientUnits="userSpaceOnUse"
       x2="632.47998"
       gradientTransform="matrix(0.38102,-0.14867,0.14892,0.38037,40.393,169.94)"
       y1="53.938999"
       x1="629.33002"
       inkscape:collect="always" />
    <filter
       id="filter10685"
       height="1.1968"
       width="1.2034"
       y="-0.098376997"
       x="-0.10168"
       inkscape:collect="always">
      <feGaussianBlur
         id="feGaussianBlur10687"
         stdDeviation="0.75759177"
         inkscape:collect="always" />
    </filter>
    <linearGradient
       id="linearGradient9550"
       y2="312.35999"
       gradientUnits="userSpaceOnUse"
       x2="814.5"
       y1="363.35999"
       x1="814.5"
       inkscape:collect="always">
      <stop
         id="stop5433"
         style="stop-color:#862c2c"
         offset="0" />
      <stop
         id="stop5435"
         style="stop-color:#621b1b"
         offset="1" />
    </linearGradient>
    <radialGradient
       id="radialGradient9548"
       gradientUnits="userSpaceOnUse"
       cy="347.26999"
       cx="814.5"
       r="25.5"
       inkscape:collect="always">
      <stop
         id="stop5417"
         style="stop-color:#ffdcdc"
         offset="0" />
      <stop
         id="stop5419"
         style="stop-color:#cf7575"
         offset="1" />
    </radialGradient>
    <linearGradient
       id="linearGradient6468">
      <stop
         id="stop6470"
         style="stop-color:#5e5e5e"
         offset="0" />
      <stop
         id="stop6472"
         style="stop-color:#363636"
         offset="1" />
    </linearGradient>
    <linearGradient
       id="linearGradient6460">
      <stop
         id="stop6462"
         style="stop-color:#dedede"
         offset="0" />
      <stop
         id="stop6464"
         style="stop-color:#9d9d9d"
         offset="1" />
    </linearGradient>
    <linearGradient
       id="linearGradient30526"
       y2="25.597"
       xlink:href="#linearGradient5037"
       gradientUnits="userSpaceOnUse"
       x2="632.47998"
       gradientTransform="matrix(0.51249,-0.19997,0.20031,0.51162,213.55,-71.288)"
       y1="53.938999"
       x1="629.33002"
       inkscape:collect="always" />
    <linearGradient
       id="linearGradient5037">
      <stop
         id="stop5039"
         style="stop-color:#ffffff"
         offset="0" />
      <stop
         id="stop5041"
         style="stop-color:#ffffff;stop-opacity:0"
         offset="1" />
    </linearGradient>
    <filter
       id="filter31539"
       height="1.2244"
       width="1.2579"
       y="-0.1122"
       x="-0.12896"
       inkscape:collect="always">
      <feGaussianBlur
         id="feGaussianBlur31541"
         stdDeviation="1.1173853"
         inkscape:collect="always" />
    </filter>
    <linearGradient
       id="linearGradient30509"
       y2="-76.400002"
       gradientUnits="userSpaceOnUse"
       x2="531.01001"
       y1="-1.2398"
       x1="531.01001"
       inkscape:collect="always">
      <stop
         id="stop9539"
         style="stop-color:#c2ab45"
         offset="0" />
      <stop
         id="stop9541"
         style="stop-color:#8c7d3f"
         offset="1" />
    </linearGradient>
    <radialGradient
       id="radialGradient30507"
       gradientUnits="userSpaceOnUse"
       cy="-27.632"
       cx="531.03998"
       gradientTransform="matrix(0.87056,0,0,0.87056,68.738,-5.1012)"
       r="37.709"
       inkscape:collect="always">
      <stop
         id="stop9531"
         style="stop-color:#f5e382"
         offset="0" />
      <stop
         id="stop9533"
         style="stop-color:#c3af3f"
         offset="1" />
    </radialGradient>
    <linearGradient
       inkscape:collect="always"
       xlink:href="#linearGradient5037"
       id="linearGradient4591"
       gradientUnits="userSpaceOnUse"
       x1="557.54999"
       y1="-39.056"
       x2="557.54999"
       y2="-3.3468001" />
    <linearGradient
       inkscape:collect="always"
       xlink:href="#linearGradient5037"
       id="linearGradient4593"
       gradientUnits="userSpaceOnUse"
       x1="557.54999"
       y1="-39.056"
       x2="557.54999"
       y2="-3.3468001" />
  </defs>
  <sodipodi:namedview
     id="base"
     bordercolor="#666666"
     inkscape:pageshadow="2"
     guidetolerance="10"
     pagecolor="#ffffff"
     gridtolerance="10000"
     inkscape:window-height="1057"
     inkscape:zoom="2.8284271"
     objecttolerance="10"
     borderopacity="1.0"
     inkscape:current-layer="layer1"
     inkscape:cx="120.15574"
     inkscape:cy="2.7098621"
     inkscape:window-y="0"
     inkscape:window-x="0"
     inkscape:window-width="1920"
     inkscape:pageopacity="0.0"
     inkscape:document-units="px"
     showgrid="true"
     showguides="false"
     inkscape:window-maximized="1">
    <inkscape:grid
       type="xygrid"
       id="grid4595"
       dotted="true"
       originx="-6.9373995"
       originy="165.31349" />
  </sodipodi:namedview>
  <g
     id="layer1"
     inkscape:label="Layer 1"
     inkscape:groupmode="layer"
     transform="translate(145.7626,-160.7355)">
    <g
       id="Play"
       inkscape:label="Play"
       transform="matrix(0.67755,0,0,0.6764,-326.29274,297.28106)">
      <path
         id="path9472"
         sodipodi:rx="35.708893"
         sodipodi:ry="35.708893"
         style="fill:url(#radialGradient9538);stroke:url(#linearGradient10617);stroke-width:2.95429993;stroke-linecap:round;stroke-linejoin:round"
         sodipodi:type="arc"
         d="m 566.74606,-39.409218 a 35.708893,35.708893 0 0 1 -35.52485,35.7084187 35.708893,35.708893 0 0 1 -35.89104,-35.3403447 35.708893,35.708893 0 0 1 35.1549,-36.072698 35.708893,35.708893 0 0 1 36.25341,34.968516"
         sodipodi:open="true"
         transform="translate(-49.888,-125.27)"
         sodipodi:cy="-39.409218"
         sodipodi:cx="531.03717"
         sodipodi:end="6.2625697"
         sodipodi:start="0" />
      <g
         id="g9474"
         transform="translate(-54.859,58.823)">
        <path
           id="path9476"
           style="opacity:0.5;fill:#000000;stroke:#000000;stroke-width:3.07599998;stroke-linecap:round;stroke-linejoin:round;filter:url(#filter6084)"
           d="m 523.42,-241.28 v 38.32 l 32.94,-19.01 z"
           inkscape:connector-curvature="0" />
        <path
           id="path9478"
           style="fill:#d6ffdc;stroke:#33543c;stroke-width:3.07620001;stroke-linecap:round;stroke-linejoin:round"
           d="m 521.66,-243.05 v 38.32 l 32.93,-19.01 z"
           inkscape:connector-curvature="0" />
      </g>
      <ellipse
         id="path9480"
         style="fill:url(#linearGradient4591)"
         transform="matrix(1.0149,0,0,1.0396,-84.727,-157.14)"
         cx="557.55371"
         cy="-21.201218"
         rx="23.688078"
         ry="17.854446" />
      <path
         id="path9482"
         style="fill:url(#linearGradient9542)"
         d="m 451.42,-150.27 c 7.1,15.8 25.44,23.42 41.75,17.05 16.3,-6.37 24.61,-24.4 19.14,-40.82 -4.43,11.11 -13.28,20.41 -25.28,25.11 -12.02,4.69 -24.82,3.84 -35.61,-1.34 z"
         inkscape:connector-curvature="0" />
    </g>
    <g
       id="Stop"
       inkscape:export-ydpi="77.809998"
       inkscape:export-filename="/home/akiross/University/ium/progetto/main.png"
       transform="matrix(1.4668,0,0,1.4668,-475.17236,64.163372)"
       inkscape:export-xdpi="77.809998"
       inkscape:label="Stop">
      <circle
         id="path9492"
         style="fill:url(#radialGradient9548);stroke:url(#linearGradient9550);stroke-width:2.00839996;stroke-linecap:round;stroke-linejoin:round"
         transform="matrix(0.67892,0,0,0.67892,-270.24,-146.22)"
         cx="814.5"
         cy="337.86218"
         r="24" />
      <rect
         id="rect10619"
         style="opacity:0.5;fill:#000000;filter:url(#filter10685)"
         transform="matrix(1.151,0,0,1.151,-43.467,-13.083)"
         height="15.402"
         width="14.902"
         y="76.461998"
         x="276.29001" />
      <rect
         id="rect9494"
         style="fill:#ffe4e4;stroke:#9f2b2b;stroke-width:1.5;stroke-linecap:round;stroke-linejoin:round"
         height="15.402"
         width="14.902"
         y="75.461998"
         x="275.29001" />
      <ellipse
         id="path10595"
         style="fill:url(#linearGradient9540)"
         transform="matrix(0.45298,0,0,0.46321,30.183,86.293)"
         cx="557.55371"
         cy="-21.201218"
         rx="23.688078"
         ry="17.854446" />
      <path
         id="path10597"
         style="fill:url(#linearGradient10601)"
         d="m 269.44,89.353 c 3.17,7.039 11.36,10.437 18.64,7.596 7.27,-2.839 10.98,-10.87 8.54,-18.186 -1.98,4.948 -5.93,9.094 -11.29,11.185 -5.36,2.092 -11.07,1.711 -15.89,-0.595 z"
         inkscape:connector-curvature="0" />
    </g>
    <g
       id="Pause"
       inkscape:label="Pause"
       transform="matrix(1.1268,0,0,1.1287,-728.48493,398.44458)">
      <path
         id="path30495"
         sodipodi:rx="35.708893"
         sodipodi:ry="35.708893"
         style="fill:url(#radialGradient30507);stroke:url(#linearGradient30509);stroke-width:2.95670009;stroke-linecap:round;stroke-linejoin:round"
         sodipodi:type="arc"
         d="m 566.74606,-39.409218 a 35.708893,35.708893 0 0 1 -35.52485,35.7084187 35.708893,35.708893 0 0 1 -35.89104,-35.3403447 35.708893,35.708893 0 0 1 35.1549,-36.072698 35.708893,35.708893 0 0 1 36.25341,34.968516"
         sodipodi:open="true"
         transform="matrix(0.60032,0,0,0.5993,220.68,-164.7)"
         sodipodi:cy="-39.409218"
         sodipodi:cx="531.03717"
         sodipodi:end="6.2625697"
         sodipodi:start="0" />
      <path
         id="path31509"
         sodipodi:nodetypes="cccsccccccsccc"
         style="opacity:0.5;fill:#000000;stroke:#000000;stroke-width:1.63940001;stroke-linecap:round;stroke-linejoin:round;filter:url(#filter31539)"
         d="m 534.23,-198.21 c -1.92,0 -3.45,1.48 -3.45,3.33 v 15.6 c 0,1.84 1.53,3.33 3.45,3.33 1.91,0 3.44,-1.49 3.44,-3.33 v -15.6 c 0,-1.85 -1.53,-3.33 -3.44,-3.33 z m 12.26,0 c -1.92,0 -3.45,1.48 -3.45,3.33 v 15.6 c 0,1.84 1.53,3.33 3.45,3.33 1.91,0 3.44,-1.49 3.44,-3.33 v -15.6 c 0,-1.85 -1.53,-3.33 -3.44,-3.33 z"
         inkscape:connector-curvature="0" />
      <path
         id="path30519"
         sodipodi:nodetypes="cccsccccccsccc"
         style="fill:#fffae0;stroke:#88732a;stroke-width:1.63940001;stroke-linecap:round;stroke-linejoin:round"
         d="m 533.34,-199.45 c -1.91,0 -3.45,1.48 -3.45,3.33 v 15.6 c 0,1.85 1.54,3.33 3.45,3.33 1.92,0 3.45,-1.48 3.45,-3.33 v -15.6 c 0,-1.85 -1.53,-3.33 -3.45,-3.33 z m 12.26,0 c -1.91,0 -3.44,1.48 -3.44,3.33 v 15.6 c 0,1.85 1.53,3.33 3.44,3.33 1.92,0 3.45,-1.48 3.45,-3.33 v -15.6 c 0,-1.85 -1.53,-3.33 -3.45,-3.33 z"
         inkscape:connector-curvature="0" />
      <ellipse
         id="path30503"
         style="fill:url(#linearGradient4593)"
         transform="matrix(0.60928,0,0,0.62304,199.77,-183.8)"
         cx="557.55371"
         cy="-21.201218"
         rx="23.688078"
         ry="17.854446" />
      <path
         id="path30505"
         style="fill:url(#linearGradient30526)"
         d="m 521.62,-179.68 c 4.27,9.46 15.28,14.03 25.07,10.21 9.78,-3.82 14.77,-14.62 11.49,-24.46 -2.66,6.66 -7.97,12.23 -15.18,15.05 -7.21,2.81 -14.9,2.3 -21.38,-0.8 z"
         inkscape:connector-curvature="0" />
    </g>
  </g>
  <metadata
     id="metadata78">
    <rdf:RDF>
      <cc:Work>
        <dc:format>image/svg+xml</dc:format>
        <dc:type
           rdf:resource="http://purl.org/dc/dcmitype/StillImage" />
        <cc:license
           rdf:resource="http://creativecommons.org/publicdomain/zero/1.0/" />
        <dc:publisher>
          <cc:Agent
             rdf:about="http://openclipart.org/">
            <dc:title>Openclipart</dc:title>
          </cc:Agent>
        </dc:publisher>
        <dc:title>Audio Button Set</dc:title>
        <dc:date>2008-01-23T23:01:43</dc:date>
        <dc:description>A simple set of buttons for a media player.</dc:description>
        <dc:source>https://openclipart.org/detail/11572/audio-button-set-by-akiross</dc:source>
        <dc:creator>
          <cc:Agent>
            <dc:title>akiross</dc:title>
          </cc:Agent>
        </dc:creator>
        <dc:subject>
          <rdf:Bag>
            <rdf:li>button</rdf:li>
            <rdf:li>glossy</rdf:li>
            <rdf:li>next</rdf:li>
            <rdf:li>pause</rdf:li>
            <rdf:li>play</rdf:li>
            <rdf:li>player</rdf:li>
            <rdf:li>previous</rdf:li>
            <rdf:li>set</rdf:li>
            <rdf:li>sound</rdf:li>
            <rdf:li>stop</rdf:li>
          </rdf:Bag>
        </dc:subject>
      </cc:Work>
      <cc:License
         rdf:about="http://creativecommons.org/publicdomain/zero/1.0/">
        <cc:permits
           rdf:resource="http://creativecommons.org/ns#Reproduction" />
        <cc:permits
           rdf:resource="http://creativecommons.org/ns#Distribution" />
        <cc:permits
           rdf:resource="http://creativecommons.org/ns#DerivativeWorks" />
      </cc:License>
    </rdf:RDF>
  </metadata>
</svg>
